<?xml version="1.0" standalone="no"?>
<!DOCTYPE svg PUBLIC "-//W3C//DTD SVG 20010904//EN"
 "http://www.w3.org/TR/2001/REC-SVG-20010904/DTD/svg10.dtd">
<svg version="1.0" xmlns="http://www.w3.org/2000/svg"
 width="260.000000pt" height="260.000000pt" viewBox="0 0 260.000000 260.000000"
 preserveAspectRatio="xMidYMid meet">
<metadata>
Created by potrace 1.11, written by Peter Selinger 2001-2013
</metadata>
<g transform="translate(0.000000,260.000000) scale(0.100000,-0.100000)"
fill="#000000" stroke="none">
<path d="M376 2589 c-169 -40 -330 -204 -366 -375 -7 -33 -10 -356 -8 -984 l3
-935 31 -65 c39 -83 111 -155 194 -194 l65 -31 1005 0 1005 0 65 31 c83 39
155 111 194 194 l31 65 0 1005 0 1005 -31 65 c-39 83 -111 155 -194 194 l-65
31 -945 2 c-553 1 -961 -3 -984 -8z m379 -784 c0 -64 0 -65 -27 -65 -40 0 -78
-20 -83 -44 -3 -12 -9 -80 -13 -151 -10 -142 -22 -178 -75 -226 l-30 -28 32
-27 c52 -44 62 -74 73 -228 9 -131 11 -143 34 -163 15 -14 38 -23 57 -23 l32
0 0 -65 0 -65 -55 0 c-79 0 -124 16 -159 55 -36 41 -40 60 -50 237 -8 155 -20
184 -82 204 -33 11 -34 13 -39 78 l-5 66 30 6 c39 8 72 39 84 78 5 17 12 92
16 166 4 74 12 148 19 165 26 61 91 94 186 95 l55 0 0 -65z m1236 54 c84 -29
108 -76 115 -227 3 -64 7 -136 10 -159 6 -54 43 -99 86 -107 l33 -6 -1 -67
c-2 -66 -3 -68 -31 -74 -72 -14 -85 -47 -94 -232 -9 -174 -21 -208 -89 -244
-32 -17 -60 -23 -106 -23 l-62 0 -4 65 c-3 65 -3 65 24 65 76 0 98 39 98 177
0 124 15 181 61 227 l39 39 -39 42 c-46 50 -61 106 -61 229 0 116 -7 144 -41
161 -15 8 -41 15 -56 15 -28 0 -28 0 -28 65 l0 65 56 0 c31 0 71 -5 90 -11z
m-593 -34 c2 -2 -12 -43 -31 -91 l-34 -89 -59 -6 c-114 -12 -197 -71 -246
-174 -52 -111 -34 -233 49 -325 l45 -50 -33 -89 -33 -90 -30 16 c-50 26 -132
118 -165 185 -41 83 -64 195 -55 267 27 233 183 403 409 446 57 11 170 11 183
0z m181 -146 c215 -143 288 -425 171 -659 -106 -210 -355 -313 -582 -241 -38
12 -68 24 -68 26 0 4 71 168 75 173 1 1 21 -5 45 -13 23 -8 71 -15 105 -15
123 0 239 88 279 212 43 133 -11 280 -133 358 l-48 32 36 84 c20 46 41 84 47
84 7 0 39 -18 73 -41z"/>
</g>
</svg>
